<?xml version="1.0" standalone="no"?>
<!DOCTYPE svg PUBLIC "-//W3C//DTD SVG 20010904//EN"
 "http://www.w3.org/TR/2001/REC-SVG-20010904/DTD/svg10.dtd">
<svg version="1.0" xmlns="http://www.w3.org/2000/svg"
 width="70.000000pt" height="70.000000pt" viewBox="0 0 70.000000 70.000000"
 preserveAspectRatio="xMidYMid meet">
<metadata>
Created by potrace 1.11, written by Peter Selinger 2001-2013
</metadata>
<g transform="translate(0.000000,70.000000) scale(0.100000,-0.100000)"
fill="#000000" stroke="none">
<path d="M28 578 c0 -2 -2 -99 -3 -215 -2 -200 -1 -213 16 -213 16 0 19 11 21
102 l3 102 118 1 117 0 0 -102 c0 -96 1 -103 20 -103 19 0 20 7 20 183 l0 182
120 -180 c80 -120 126 -181 140 -183 20 -3 20 2 20 213 0 201 -1 216 -17 213
-16 -3 -18 -19 -18 -176 0 -94 -2 -172 -6 -172 -3 0 -58 79 -122 175 -145 217
-157 223 -157 77 l0 -97 -117 0 -118 0 -3 98 c-2 77 -6 97 -17 97 -8 0 -16 -1
-17 -2z"/>
</g>
</svg>
