<?xml version="1.0" encoding="UTF-8"?>
<svg width="507px" height="351px" viewBox="0 0 507 351" version="1.1" xmlns="http://www.w3.org/2000/svg" xmlns:xlink="http://www.w3.org/1999/xlink">
    <!-- Generator: sketchtool 51.2 (57519) - http://www.bohemiancoding.com/sketch -->
    <title>53CCFC76-BFA0-470D-88C5-B3BB798EA1CB</title>
    <desc>Created with sketchtool.</desc>
    <defs>
        <filter x="-14.5%" y="-22.5%" width="157.9%" height="184.2%" filterUnits="objectBoundingBox" id="filter-1">
            <feOffset dx="80" dy="65" in="SourceAlpha" result="shadowOffsetOuter1"></feOffset>
            <feGaussianBlur stdDeviation="17" in="shadowOffsetOuter1" result="shadowBlurOuter1"></feGaussianBlur>
            <feColorMatrix values="0 0 0 0 0   0 0 0 0 0   0 0 0 0 0  0 0 0 0.105893342 0" type="matrix" in="shadowBlurOuter1" result="shadowMatrixOuter1"></feColorMatrix>
            <feMerge>
                <feMergeNode in="shadowMatrixOuter1"></feMergeNode>
                <feMergeNode in="SourceGraphic"></feMergeNode>
            </feMerge>
        </filter>
    </defs>
    <g id="nickoProduction" stroke="none" stroke-width="1" fill="none" fill-rule="evenodd">
        <g id="designProcess" transform="translate(-209.000000, -625.000000)" fill="#6100FF" fill-rule="nonzero">
            <g id="eye-open" filter="url(#filter-1)" transform="translate(209.000000, 625.000000)">
                <path d="M389.604305,111.349047 C369.080535,77.8201772 341.484995,50.8798496 306.821534,30.5288328 C272.155762,10.1770468 235.550125,0 197,0 C158.449875,0 121.842698,10.1732006 87.1769261,30.5288328 C52.5103845,50.8798496 24.9163842,77.8201772 4.39569529,111.349047 C1.46548846,116.472955 0,121.524555 0,126.503846 C0,131.483138 1.46548846,136.534737 4.39569529,141.657107 C24.9163842,175.187515 52.5103845,202.130151 87.1769261,222.476552 C121.842698,242.830646 158.449875,253 197,253 C235.550895,253 272.156532,242.864492 306.821534,222.587322 C341.484995,202.309384 369.085156,175.331363 389.604305,141.657107 C392.535282,136.534737 394,131.485445 394,126.503846 C394,121.524555 392.535282,116.472955 389.604305,111.349047 Z M149.835606,51.2813929 C162.953384,38.1781566 178.673308,31.6242308 196.99769,31.6242308 C199.927897,31.6242308 202.42146,32.6519356 204.47453,34.700422 C206.52452,36.7496777 207.554905,39.239708 207.554905,42.1674359 C207.554905,45.0974715 206.52452,47.5859633 204.479151,49.6321421 C202.429161,51.6837055 199.934057,52.7083333 197.00308,52.7083333 C184.398185,52.7083333 173.621493,57.17608 164.681474,66.1054193 C155.738375,75.0401434 151.269521,85.8002743 151.269521,98.3911966 C151.269521,101.322771 150.240676,103.809724 148.189916,105.860518 C146.136076,107.912851 143.645593,108.936709 140.714616,108.936709 C137.781329,108.936709 135.290075,107.910543 133.237005,105.860518 C131.183165,103.809724 130.1574,101.319694 130.1574,98.3911966 C130.1574,80.090974 136.718599,64.3853984 149.835606,51.2813929 Z M292.533214,198.213949 C263.143355,215.998781 231.299977,224.896581 197,224.896581 C162.700793,224.896581 130.857415,216.004165 101.469097,198.213949 C72.0807778,180.423733 47.6387713,156.521134 28.1446174,126.503846 C50.4242005,91.9488106 78.3470308,66.1046501 111.913108,48.9775187 C102.97232,64.2023193 98.500385,80.6755965 98.500385,98.3904274 C98.500385,125.479988 108.139649,148.644115 127.412786,167.900504 C146.685923,187.156892 169.884228,196.780855 197,196.780855 C224.118082,196.780855 247.309457,187.151507 266.587214,167.900504 C285.864972,148.6495 295.500385,125.479988 295.500385,98.3904274 C295.500385,80.6755965 291.02768,64.2000116 282.086122,48.9775187 C315.650659,66.1046501 343.575029,91.9511183 365.853842,126.503846 C346.362769,156.521134 321.923073,180.423733 292.533214,198.213949 Z" id="Shape"></path>
            </g>
        </g>
    </g>
</svg>