<?xml version="1.0" encoding="UTF-8"?>
<svg width="26px" height="25px" viewBox="0 0 26 25" version="1.1" xmlns="http://www.w3.org/2000/svg" xmlns:xlink="http://www.w3.org/1999/xlink">
    <!-- Generator: sketchtool 51.2 (57519) - http://www.bohemiancoding.com/sketch -->
    <title>CBB1B585-E861-43E0-96AC-D1B999A9E5AA</title>
    <desc>Created with sketchtool.</desc>
    <defs></defs>
    <g id="Symbols" stroke="none" stroke-width="1" fill="none" fill-rule="evenodd">
        <g id="footer" transform="translate(-49.000000, -2.000000)" fill="#000000" fill-rule="nonzero">
            <g id="social">
                <g transform="translate(49.000000, 0.000000)">
                    <g transform="translate(0.000000, 2.000000)" id="Shape-Copy">
                        <path d="M23.2385471,0 L2.76145288,0 C1.5125,0 0.5,1.0125 0.5,2.26145288 L0.5,22.7384817 C0.5,23.9875 1.5125,25 2.76145288,25 L23.2384817,25 C24.4875,25 25.5,23.9875 25.5,22.7384817 L25.5,2.26145288 C25.5,1.0125 24.4875,0 23.2385471,0 Z M8.23606021,21.5866492 C8.23606021,21.9501309 7.9414267,22.2447644 7.57794503,22.2447644 L4.77650524,22.2447644 C4.41302356,22.2447644 4.11839005,21.9501309 4.11839005,21.5866492 L4.11839005,9.84312827 C4.11839005,9.4796466 4.41302356,9.18501309 4.77650524,9.18501309 L7.57794503,9.18501309 C7.9414267,9.18501309 8.23606021,9.4796466 8.23606021,9.84312827 L8.23606021,21.5866492 Z M6.17722513,8.07801047 C4.70739529,8.07801047 3.5158377,6.88645288 3.5158377,5.41662304 C3.5158377,3.94679319 4.70739529,2.7552356 6.17722513,2.7552356 C7.64705497,2.7552356 8.83861257,3.94679319 8.83861257,5.41662304 C8.83861257,6.88645288 7.64712042,8.07801047 6.17722513,8.07801047 Z M22.8763089,21.6396597 C22.8763089,21.973822 22.6053665,22.2447644 22.2712042,22.2447644 L19.2650524,22.2447644 C18.9308901,22.2447644 18.6599476,21.973822 18.6599476,21.6396597 L18.6599476,16.1312827 C18.6599476,15.309555 18.9009817,12.5304319 16.5125,12.5304319 C14.6598168,12.5304319 14.2840314,14.4326571 14.2085733,15.286322 L14.2085733,21.6396597 C14.2085733,21.973822 13.9376963,22.2447644 13.6034686,22.2447644 L10.6960079,22.2447644 C10.3618455,22.2447644 10.0909031,21.973822 10.0909031,21.6396597 L10.0909031,9.7901178 C10.0909031,9.4559555 10.3618455,9.18501309 10.6960079,9.18501309 L13.6034686,9.18501309 C13.9376309,9.18501309 14.2085733,9.4559555 14.2085733,9.7901178 L14.2085733,10.8146597 C14.8955497,9.78370419 15.9164921,8.98795812 18.0902487,8.98795812 C22.9038613,8.98795812 22.8763089,13.4850785 22.8763089,15.9560209 L22.8763089,21.6396597 Z"></path>
                    </g>
                </g>
            </g>
        </g>
    </g>
</svg>