<?xml version="1.0" encoding="UTF-8"?>
<svg width="28px" height="24px" viewBox="0 0 28 24" version="1.1" xmlns="http://www.w3.org/2000/svg" xmlns:xlink="http://www.w3.org/1999/xlink">
    <!-- Generator: sketchtool 51.2 (57519) - http://www.bohemiancoding.com/sketch -->
    <title>3DF14F6F-FC64-4DE9-9C70-9D92EB1B73CA</title>
    <desc>Created with sketchtool.</desc>
    <defs></defs>
    <g id="Symbols" stroke="none" stroke-width="1" fill="none" fill-rule="evenodd">
        <g id="footer" transform="translate(-95.000000, -4.000000)" fill-rule="nonzero">
            <g id="social">
                <g transform="translate(49.000000, 0.000000)">
                    <g transform="translate(0.000000, 2.000000)" id="medium-copy">
                        <g transform="translate(46.000000, 2.000000)">
                            <path d="M27.3219365,23.1918281 L18.6672727,19.1234982 L18.6020798,0.681221673 C18.6005803,0.250698007 19.0602154,-0.0329895784 19.4570139,0.153575331 L27.6620393,4.01167064 C27.8686145,4.10879331 28,4.31316288 28,4.53729214 L28,22.7749198 C27.9999286,23.1157219 27.6359764,23.339502 27.3219365,23.1918281 Z" id="Shape" fill="#D2D2D2"></path>
                            <path d="M18.6976752,19.2380952 L9.39792388,14.825976 L18.3508664,0.281064684 C18.5090288,0.0241247764 18.839036,-0.0724812709 19.1136048,0.0577725018 L27.3736386,3.97720786 C27.6893963,4.12704866 27.8050229,4.51312309 27.6224732,4.80818775 L18.6976752,19.2380952 Z" id="Shape" fill="#000000"></path>
                            <path d="M18.6989619,19.1428571 L9.3834372,14.7384623 L0.844868977,1.0656485 C0.606974421,0.684719176 1.02091095,0.233679307 1.43058668,0.42739112 L9.3834372,4.18801196 L18.6989619,19.1428571 Z" id="Shape" fill="#4D4D4D"></path>
                            <path d="M8.72009701,23.2870382 L0.267961463,19.3089534 C0.104143787,19.231823 0,19.0696675 0,18.8917925 L0,0.544046882 C0,0.213867246 0.3524043,-0.00306203195 0.65648417,0.140090332 L9.39792388,4.25434098 L9.39792388,22.8698772 C9.39792388,23.2108859 9.03402735,23.4348016 8.72009701,23.2870382 Z" id="Shape" fill="#000000"></path>
                        </g>
                    </g>
                </g>
            </g>
        </g>
    </g>
</svg>